<svg xmlns="http://www.w3.org/2000/svg" width="88.311" height="88.309" viewBox="0 0 88.311 88.309">
  <g id="doctor-checkmark" transform="translate(-8.68 -8.68)">
    <path id="Line_35" data-name="Line 35" d="M1.682,10.743A4,4,0,0,1-2.2,7.712L-3.881.97A4,4,0,0,1-.97-3.881,4,4,0,0,1,3.881-.97L5.566,5.772a4,4,0,0,1-3.884,4.971Z" transform="translate(59.602 52.434)" fill="#323232"/>
    <path id="Path_1168" data-name="Path 1168" d="M3,35.625a4,4,0,0,1-4-4V30A16.725,16.725,0,0,1,12.411,13.644L24.44,11.239a7.774,7.774,0,0,1,5.87,1.159,18.839,18.839,0,0,0,14.179,2.894,4,4,0,1,1,1.557,7.847,26.866,26.866,0,0,1-20.2-4.1L13.979,21.489A8.7,8.7,0,0,0,7,30v1.623A4,4,0,0,1,3,35.625Z" transform="translate(9.68 48.684)" fill="#323232"/>
    <path id="Line_36" data-name="Line 36" d="M33.814,4H0A4,4,0,0,1-4,0,4,4,0,0,1,0-4H33.814a4,4,0,0,1,4,4A4,4,0,0,1,33.814,4Z" transform="translate(33.814 29.588)" fill="#323232"/>
    <path id="Path_1169" data-name="Path 1169" d="M16.454-1H33.361A12.468,12.468,0,0,1,45.814,11.454V28.361A20.907,20.907,0,0,1,4,28.361V11.454A12.468,12.468,0,0,1,16.454-1Zm8.454,42.268A12.922,12.922,0,0,0,37.814,28.361V11.454A4.459,4.459,0,0,0,33.361,7H16.454A4.459,4.459,0,0,0,12,11.454V28.361A12.922,12.922,0,0,0,24.907,41.268Z" transform="translate(25.814 9.68)" fill="#323232"/>
    <path id="Line_37" data-name="Line 37" d="M0,16.563a4.008,4.008,0,0,1-.973-.12,4,4,0,0,1-2.91-4.851L-.74-.97a4,4,0,0,1,4.851-2.91A4,4,0,0,1,7.021.97L3.881,13.532A4,4,0,0,1,0,16.563Z" transform="translate(38.709 52.434)" fill="#323232"/>
    <path id="Ellipse_57" data-name="Ellipse 57" d="M14.794-4A18.794,18.794,0,1,1-4,14.794,18.815,18.815,0,0,1,14.794-4Zm0,29.588A10.794,10.794,0,1,0,4,14.794,10.806,10.806,0,0,0,14.794,25.588Z" transform="translate(63.402 61.289)" fill="#323232"/>
    <path id="Path_1170" data-name="Path 1170" d="M21.035,27.581a3.987,3.987,0,0,1-2.827-1.17l-3.7-3.7a4,4,0,1,1,5.654-5.659l.873.872,3.334-3.335a4,4,0,1,1,5.658,5.655l-6.161,6.164A3.988,3.988,0,0,1,21.035,27.581Z" transform="translate(55.931 56.2)" fill="#323232"/>
    <path id="Line_38" data-name="Line 38" d="M0,20.245a4,4,0,0,1-4-4V0A4,4,0,0,1,0-4,4,4,0,0,1,4,0V16.245A4,4,0,0,1,0,20.245Z" transform="translate(33.814 64.064)" fill="#323232"/>
    <path id="Ellipse_58" data-name="Ellipse 58" d="M6.34-4A10.34,10.34,0,1,1-4,6.34,10.352,10.352,0,0,1,6.34-4Zm0,12.68A2.34,2.34,0,1,0,4,6.34,2.343,2.343,0,0,0,6.34,8.68Z" transform="translate(27.474 80.309)" fill="#323232"/>
  </g>
</svg>
