<svg xmlns="http://www.w3.org/2000/svg" width="83.75" height="83.75" viewBox="0 0 83.75 83.75">
  <g id="calendar-checkmark" transform="translate(-8.625 -8.625)">
    <path id="Rectangle_900" data-name="Rectangle 900" d="M3-4H72.75a7.008,7.008,0,0,1,7,7V66.437a7.008,7.008,0,0,1-7,7H3a7.008,7.008,0,0,1-7-7V3A7.008,7.008,0,0,1,3-4ZM71.75,4H4V65.437H71.75Z" transform="translate(12.625 18.938)" fill="#fff"/>
    <path id="Line_47" data-name="Line 47" d="M0,16.625a4,4,0,0,1-4-4V0A4,4,0,0,1,0-4,4,4,0,0,1,4,0V12.625A4,4,0,0,1,0,16.625Z" transform="translate(31.563 12.625)" fill="#fff"/>
    <path id="Line_48" data-name="Line 48" d="M0,16.625a4,4,0,0,1-4-4V0A4,4,0,0,1,0-4,4,4,0,0,1,4,0V12.625A4,4,0,0,1,0,16.625Z" transform="translate(69.438 12.625)" fill="#fff"/>
    <path id="Path_1187" data-name="Path 1187" d="M15.454,23.417a3.987,3.987,0,0,1-2.827-1.17L7.573,17.2a4,4,0,1,1,5.654-5.659l2.225,2.223,5.585-5.588A4,4,0,1,1,26.7,13.828l-8.412,8.417A3.988,3.988,0,0,1,15.454,23.417Z" transform="translate(33.367 35.292)" fill="#fff"/>
    <path id="Line_49" data-name="Line 49" d="M42.083,4H0A4,4,0,0,1-4,0,4,4,0,0,1,0-4H42.083a4,4,0,0,1,4,4A4,4,0,0,1,42.083,4Z" transform="translate(29.458 71.484)" fill="#fff"/>
  </g>
</svg>
