<svg xmlns="http://www.w3.org/2000/svg" width="26.834" height="26.834" viewBox="0 0 26.834 26.834">
  <g id="doctor-checkmark" transform="translate(-3.25 -3.25)">
    <path id="Line_35" data-name="Line 35" d="M.531,2.877A.75.75,0,0,1-.2,2.309L-.728.182a.75.75,0,0,1,.546-.91.75.75,0,0,1,.91.546l.532,2.127a.751.751,0,0,1-.728.932Z" transform="translate(18.801 16.54)" fill="#525252"/>
    <path id="Path_1168" data-name="Path 1168" d="M3,21.054a.75.75,0,0,1-.75-.75v-.512a4.763,4.763,0,0,1,3.819-4.658l3.795-.759a1.944,1.944,0,0,1,1.468.29l.006,0a6.45,6.45,0,0,0,4.85.985.75.75,0,1,1,.292,1.471A7.96,7.96,0,0,1,10.5,15.913a.454.454,0,0,0-.341-.066L6.363,16.6A3.259,3.259,0,0,0,3.75,19.792V20.3A.75.75,0,0,1,3,21.054Z" transform="translate(1 5.029)" fill="#525252"/>
    <path id="Line_36" data-name="Line 36" d="M10.667.75H0A.75.75,0,0,1-.75,0,.75.75,0,0,1,0-.75H10.667a.75.75,0,0,1,.75.75A.75.75,0,0,1,10.667.75Z" transform="translate(10.667 9.333)" fill="#525252"/>
    <path id="Path_1169" data-name="Path 1169" d="M10.667,2.25H16a3.421,3.421,0,0,1,3.417,3.417V11A6.083,6.083,0,1,1,7.25,11V5.667A3.421,3.421,0,0,1,10.667,2.25Zm2.667,13.333A4.589,4.589,0,0,0,17.917,11V5.667A1.919,1.919,0,0,0,16,3.75H10.667A1.919,1.919,0,0,0,8.75,5.667V11A4.589,4.589,0,0,0,13.333,15.583Z" transform="translate(2.667 1)" fill="#525252"/>
    <path id="Line_37" data-name="Line 37" d="M0,4.713A.752.752,0,0,1-.182,4.69a.75.75,0,0,1-.546-.91L.263-.182a.75.75,0,0,1,.91-.546.75.75,0,0,1,.546.91L.728,4.145A.75.75,0,0,1,0,4.713Z" transform="translate(12.211 16.54)" fill="#525252"/>
    <path id="Ellipse_57" data-name="Ellipse 57" d="M4.667-.75A5.417,5.417,0,1,1-.75,4.667,5.423,5.423,0,0,1,4.667-.75Zm0,9.333A3.917,3.917,0,1,0,.75,4.667,3.921,3.921,0,0,0,4.667,8.583Z" transform="translate(20 19.333)" fill="#525252"/>
    <path id="Path_1170" data-name="Path 1170" d="M18.5,20.111a.748.748,0,0,1-.53-.219L16.8,18.725a.75.75,0,0,1,1.06-1.061l.637.637,1.413-1.414a.75.75,0,1,1,1.061,1.06l-1.943,1.944A.748.748,0,0,1,18.5,20.111Z" transform="translate(5.778 5.806)" fill="#525252"/>
    <path id="Line_38" data-name="Line 38" d="M0,5.875a.75.75,0,0,1-.75-.75V0A.75.75,0,0,1,0-.75.75.75,0,0,1,.75,0V5.125A.75.75,0,0,1,0,5.875Z" transform="translate(10.667 20.209)" fill="#525252"/>
    <path id="Ellipse_58" data-name="Ellipse 58" d="M2-.75A2.75,2.75,0,1,1-.75,2,2.753,2.753,0,0,1,2-.75Zm0,4A1.25,1.25,0,1,0,.75,2,1.251,1.251,0,0,0,2,3.25Z" transform="translate(8.667 25.333)" fill="#525252"/>
  </g>
</svg>
