<svg xmlns="http://www.w3.org/2000/svg" width="962.725" height="423" viewBox="0 0 962.725 423">
  <g id="Group_2026" data-name="Group 2026" transform="translate(21842.727 20023)">
    <ellipse id="Ellipse_110" data-name="Ellipse 110" cx="56.5" cy="58" rx="56.5" ry="58" transform="translate(-21017.568 -20002)" fill="#eaeaea"/>
    <ellipse id="Ellipse_108" data-name="Ellipse 108" cx="52" cy="54" rx="52" ry="54" transform="translate(-21803.568 -19756)" fill="#9e9e9e"/>
    <ellipse id="Ellipse_109" data-name="Ellipse 109" cx="20.5" cy="21" rx="20.5" ry="21" transform="translate(-21605.568 -20023)" fill="#eaeaea"/>
    <path id="Path_1303" data-name="Path 1303" d="M-20470.646-17597.027c-1.646-.057-3.389-.189-5.182-.4l.572-4.967c2.068.238,3.742.33,4.783.367Zm5.092,0-.039-5,4.99-.039.039,5Zm10.012-.078-.039-5,5-.039.039,5Zm9.988-.078-.039-5,5-.037.037,5Zm10.008-.076-.039-5,4.99-.039.039,5Zm9.99-.076-.039-5,5.014-.039.037,5Zm10-.076-.037-5,5-.039.037,5Zm10-.076-.037-5,5-.039.037,5Zm10-.076-.037-5,5-.037.037,5Zm10-.076-.039-5,5-.039.037,5Zm10-.074-.037-5,5-.037.037,5Zm10-.074-.037-5,5-.037.037,5Zm10-.074-.037-5,5-.037.037,5Zm10-.074-.037-5,5-.035.037,5Zm10-.072-.037-5,5-.037.035,5Zm10-.072-.037-5,5-.037.037,5Zm10-.072-.035-5,5-.037.035,5Zm-165.4-.043c-1.7-.318-3.4-.7-5.055-1.135l1.273-4.836c1.535.4,3.117.76,4.7,1.057Zm175.4-.029-.035-5,5-.035.035,5Zm10-.072-.035-5,5-.035.037,5Zm10-.07-.035-5,5-.035.035,5Zm10-.07-.035-5,5-.035.035,5Zm10-.07-.035-5,5-.035.033,5Zm10-.068-.035-5,5-.033.035,5Zm10-.068-.033-5,5-.033.033,5Zm10-.066-.033-5,5-.033.033,5Zm10-.066-.033-5,5-.033.031,5Zm10-.066-.031-5,5-.031.033,5Zm10-.062-.031-5,5-.033.031,5Zm10-.064-.031-5,5-.029.031,5Zm10-.061-.029-5,5-.029.029,5Zm10-.061-.029-5,5-.029.029,5Zm9.994-.057-.029-5q2.534-.015,5-.027l.027,5Q-20163.015-17599.166-20165.549-17599.15Zm10-.055-.025-5,5-.027.027,5Zm10-.053-.023-5,4.988-.023.023,5Zm10-.047-.023-5,5-.021.021,5Zm10-.041-.018-5q2.6-.009,4.99-.016l.014,5Q-20122.936-17599.355-20125.543-17599.346Zm9.994-.029-.01-5q2.7-.006,5-.008l.006,5Q-20112.851-17599.383-20115.549-17599.375Zm10.063-.055-.16-5c1.639-.053,3.264-.156,4.83-.307l.48,4.977C-20102.01-17599.594-20103.742-17599.484-20105.486-17599.43Zm10.283-1-.838-4.93c1.6-.271,3.18-.6,4.7-.988l1.23,4.846C-20091.76-17601.088-20093.473-17600.727-20095.2-17600.434Zm-395.762-.408c-1.654-.572-3.283-1.213-4.844-1.9l2.021-4.574c1.434.635,2.936,1.225,4.459,1.752Zm405.85-2.17-1.656-4.717c1.51-.531,2.99-1.133,4.4-1.789l2.107,4.535C-20081.82-17604.258-20083.453-17603.6-20085.115-17603.012Zm-415.373-2.053c-1.539-.854-3.039-1.779-4.457-2.754l2.834-4.121c1.285.885,2.646,1.727,4.045,2.5Zm424.875-2.375-2.562-4.293a43.977,43.977,0,0,0,3.924-2.639l3.01,3.994A49.348,49.348,0,0,1-20075.613-17607.439Zm-433.5-3.576a49,49,0,0,1-3.82-3.625l3.633-3.436a44.741,44.741,0,0,0,3.43,3.256Zm441.9-2.756-3.424-3.645a44.435,44.435,0,0,0,3.271-3.42l3.791,3.262A50.023,50.023,0,0,1-20067.215-17613.771Zm-449.129-4.893a49.078,49.078,0,0,1-2.945-4.367l4.289-2.57a43.549,43.549,0,0,0,2.645,3.92Zm455.984-3.062-4.1-2.859c.893-1.281,1.746-2.637,2.533-4.031l4.354,2.459C-20058.439-17624.627-20059.377-17623.135-20060.359-17621.727Zm-461.391-5.949c-.727-1.557-1.393-3.189-1.979-4.852l4.713-1.666c.535,1.512,1.139,2.994,1.8,4.406Zm466.539-3.135-4.551-2.068c.648-1.43,1.256-2.924,1.8-4.445l4.7,1.7C-20053.848-17633.98-20054.506-17632.361-20055.211-17630.811Zm-470.035-6.709c-.42-1.643-.787-3.354-1.086-5.082l4.926-.855c.277,1.6.615,3.18,1,4.693Zm473.566-3.049-4.816-1.342c.428-1.529.807-3.107,1.131-4.687l4.9,1C-20050.814-17643.9-20051.221-17642.209-20051.68-17640.568Zm-475.354-7.164c-.168-1.67-.287-3.4-.354-5.145l5-.187c.061,1.639.172,3.264.33,4.83Zm477.43-2.963-4.957-.666c.221-1.641.379-3.25.469-4.787l4.99.293C-20049.2-17654.2-20049.367-17652.459-20049.6-17650.7Zm-472.846-7.271h-5v-5h5Zm473.434-3.033h-5v-5h5Zm-473.434-6.973h-5v-5h5Zm473.434-3.027h-5v-5h5Zm-473.434-6.971h-5v-5h5Zm473.434-3.029h-5v-5h5Zm-473.434-6.969h-5v-5h5Zm473.434-3.031h-5v-5h5Zm-473.434-6.971h-5v-5h5Zm473.434-3.029h-5v-5h5Zm-473.434-6.971h-5v-5h5Zm473.434-3.029h-5v-5h5Zm-473.434-6.971h-5v-5h5Zm473.434-3.029h-5v-5h5Zm-473.434-6.973h-5v-5h5Zm473.434-3.027h-5v-5h5Zm-473.434-6.973h-5v-5h5Zm473.434-3.027h-5v-5h5Zm0-10h-5v-5h5Zm0-10h-5v-5h5Zm0-10h-5v-5h5Zm0-10h-5v-5h5Zm0-10h-5v-5h5Zm0-10h-5v-5h5Zm0-10h-5v-5h5Zm0-10h-5v-5h5Zm0-10h-5v-5h5Z" transform="translate(-830.986 -2026.494)" fill="#9e9e9e"/>
    <path id="Path_1304" data-name="Path 1304" d="M-116.761,231.621c-.2,0-.458,0-.761-.008l.1-5c.7.013,1.094,0,1.1,0h3.832v5h-3.725C-116.3,231.617-116.485,231.621-116.761,231.621Zm371.57-.005h-2.275v-5h2.275c.885,0,1.772-.014,2.638-.041l.159,5C256.687,231.6,255.746,231.615,254.809,231.615Zm-7.269,0h-5.01v-5h5.01Zm-10,0h-5v-5h5Zm-10,0h-5.012v-5h5.012Zm-10,0h-5v-5h5Zm-10,0h-5.007v-5h5.007Zm-10.009,0h-5v-5h5Zm-9.995,0h-5v-5h5Zm-10,0h-5v-5h5Zm-10,0h-5v-5h5Zm-10,0h-5v-5h5Zm-10,0h-5v-5h5Zm-10,0h-5v-5h5Zm-10,0h-5v-5h5Zm-10,0h-5v-5h5Zm-10,0h-5v-5h5Zm-10,0h-5v-5h5Zm-10,0h-5v-5h5Zm-10,0h-5v-5h5Zm-10,0h-5v-5h5Zm-10,0h-5v-5h5Zm-10,0h-5v-5h5Zm-10,0h-5v-5h5Zm-10,0h-5v-5h5Zm-10,0h-5v-5h5Zm-10,0h-5v-5h5Zm-10,0h-5v-5h5Zm-10,0h-5v-5h5Zm-10,0h-5v-5h5Zm-10,0h-5v-5h5Zm-10,0h-5v-5h5Zm-10,0h-5v-5h5Zm-10,0h-4.991v-5h4.991Zm-10,0h-5v-5h5Zm-9.987,0H-87.5v-5h5.019Zm-10,0h-5.008v-5h5.008Zm-10.01,0h-5v-5h5Zm-20.232-.337c-1.7-.177-3.424-.419-5.126-.72l.87-4.924c1.586.28,3.192.506,4.774.671Zm385.478-.034-.479-4.977c1.623-.156,3.23-.369,4.776-.631l.836,4.93C266.225,230.849,264.5,231.077,262.755,231.245Zm10.221-1.75-1.23-4.846c1.563-.4,3.1-.86,4.574-1.377l1.657,4.717C276.365,228.555,274.683,229.061,272.977,229.494Zm-405.888-.018c-1.689-.425-3.364-.913-4.98-1.453l1.582-4.743c1.5.5,3.05.952,4.618,1.347Zm-9.845-3.3c-1.615-.69-3.2-1.449-4.706-2.257l2.362-4.407c1.378.739,2.828,1.434,4.308,2.066Zm425.589-.163-2.106-4.535a45.978,45.978,0,0,0,4.19-2.214l2.564,4.293A51.006,51.006,0,0,1,282.832,226.017Zm-434.789-4.784a51.569,51.569,0,0,1-4.219-3.131l3.184-3.856a46.528,46.528,0,0,0,3.808,2.826Zm443.807-.611-3.01-3.993a43.792,43.792,0,0,0,3.614-3.045l3.424,3.644A48.822,48.822,0,0,1,291.849,220.622Zm-451.9-6.085a48.357,48.357,0,0,1-3.471-3.968l3.938-3.081a43.335,43.335,0,0,0,3.11,3.556Zm459.568-1.113-3.791-3.26a47.084,47.084,0,0,0,2.906-3.751l4.1,2.861A52.084,52.084,0,0,1,299.516,213.424Zm-466.053-7.175a50.62,50.62,0,0,1-2.534-4.608l4.5-2.179a45.6,45.6,0,0,0,2.282,4.152Zm472.056-1.408-4.353-2.46c.77-1.362,1.5-2.8,2.164-4.262l4.552,2.07C307.154,201.788,306.359,203.353,305.518,204.841Zm-476.638-8.024c-.591-1.6-1.123-3.277-1.583-4.977l4.827-1.3c.42,1.557.907,3.088,1.447,4.551Zm480.958-1.445-4.7-1.7c.535-1.484,1.027-3.027,1.461-4.586l4.817,1.342C310.945,192.109,310.415,193.772,309.838,195.373Zm-483.688-8.605c-.307-1.659-.561-3.382-.754-5.123l4.969-.552c.18,1.621.416,3.225.7,4.766ZM312.624,185.4l-4.9-1c.322-1.573.593-3.175.805-4.762l4.956.665C313.259,182,312.969,183.718,312.624,185.4Zm-487.631-8.9c-.063-1.355-.095-2.751-.095-4.151v-.96h5v.96c0,1.322.03,2.641.09,3.919Zm489-1.357L309,174.851c.09-1.545.077-2.45.077-2.459V170h5v2.336C314.078,172.52,314.084,173.528,313.99,175.143ZM-170.1,166.389h-5v-5h5ZM314.075,165h-5v-5h5ZM-170.1,156.387h-5v-5h5ZM314.075,155h-5v-5h5ZM-170.1,146.387h-5v-5h5ZM314.075,145h-5v-5h5ZM-170.1,136.385h-5v-5h5ZM314.075,135h-5v-5h5ZM-170.1,126.385h-5v-5h5ZM314.075,125h-5v-5h5ZM-170.1,116.384h-5v-5h5ZM314.075,115h-5v-5h5ZM-170.1,106.383h-5v-5h5ZM314.075,105h-5v-5h5ZM-170.1,96.383h-5v-5h5ZM314.075,95h-5V90h5ZM-170.1,86.382h-5v-5h5ZM314.075,85h-5V80h5ZM-170.1,76.382h-5v-5h5ZM314.075,75h-5V70h5ZM-170.1,66.381h-5v-5h5ZM314.075,65h-5V60h5ZM-170.1,56.379h-5v-5h5ZM314.075,55h-5V50h5ZM-170.1,46.378h-5v-5h5ZM314.075,45h-5V40h5ZM-170.1,36.377h-5v-5h5ZM314.075,35h-5V30h5ZM-170.1,26.378h-5v-5h5ZM314.075,25h-5V20h5ZM-170.1,16.375h-5v-5h5ZM314.075,15h-5V10h5ZM-170.1,6.376h-5v-5h5ZM314.075,5h-5V0h5Z" transform="translate(-21528.65 -19772.77) rotate(180)" fill="#9e9e9e"/>
    <ellipse id="Ellipse_107" data-name="Ellipse 107" cx="25.5" cy="26" rx="25.5" ry="26" transform="translate(-21240.568 -19652)" fill="#00c3ff"/>
  </g>
</svg>
