<svg xmlns="http://www.w3.org/2000/svg" width="20.33" height="20.33" viewBox="0 0 20.33 20.33">
  <g id="Group_2031" data-name="Group 2031" transform="translate(0.75 0.75)">
    <path id="Path_1294" data-name="Path 1294" d="M13.023,14.666a3.72,3.72,0,0,1-2.452-.915.75.75,0,0,1,.987-1.13,2.236,2.236,0,0,0,2.912.015l.956-.956a2.02,2.02,0,0,0-.033-2.854,2.031,2.031,0,0,0-2.826,0,.75.75,0,1,1-1.049-1.072A3.52,3.52,0,0,1,16.5,12.732l-.006.006-.979.979-.037.035A3.72,3.72,0,0,1,13.023,14.666Z" transform="translate(-2.628 -2.793)" fill="#fff"/>
    <path id="Path_1295" data-name="Path 1295" d="M12.414,2.25h0A10.165,10.165,0,1,1,2.249,12.416q0-.015,0-.031A10.176,10.176,0,0,1,12.414,2.25Zm0,18.83a8.665,8.665,0,1,0,0-17.33h0A8.674,8.674,0,0,0,3.75,12.414c0,.01,0,.019,0,.029A8.674,8.674,0,0,0,12.414,21.08Z" transform="translate(-2.999 -3)" fill="#fff"/>
    <path id="Path_1296" data-name="Path 1296" d="M10.27,17.533a3.52,3.52,0,0,1-2.515-5.982l.006-.006.979-.979.037-.035a3.741,3.741,0,0,1,4.9,0,.75.75,0,0,1-.987,1.13,2.236,2.236,0,0,0-2.912-.015l-.956.956a2.02,2.02,0,0,0,.033,2.854,2.031,2.031,0,0,0,2.826,0,.75.75,0,1,1,1.049,1.072A3.5,3.5,0,0,1,10.27,17.533Z" transform="translate(-2.792 -2.661)" fill="#fff"/>
  </g>
</svg>
