<svg xmlns="http://www.w3.org/2000/svg" width="25.238" height="25.24" viewBox="0 0 25.238 25.24">
  <g id="icon--color-black" transform="translate(-90.834 -90.834)">
    <g id="Group_782" data-name="Group 782" transform="translate(90.834 90.834)">
      <path id="Path_704" data-name="Path 704" d="M107.2,91.583l-2.325-.618a3.908,3.908,0,0,0-4.78,2.774l-.582,2.191A11.968,11.968,0,0,1,107.2,91.583Z" transform="translate(-96.307 -90.834)" fill="#fff"/>
      <path id="Path_705" data-name="Path 705" d="M91.535,130.167l-.569,2.143a3.908,3.908,0,0,0,2.774,4.78l2.226.591A11.971,11.971,0,0,1,91.535,130.167Z" transform="translate(-90.834 -115.639)" fill="#fff"/>
      <path id="Path_706" data-name="Path 706" d="M147.049,99.96,144.56,99.3a11.969,11.969,0,0,1,4.579,8.016l.684-2.575A3.908,3.908,0,0,0,147.049,99.96Z" transform="translate(-124.716 -96.172)" fill="#fff"/>
      <path id="Path_707" data-name="Path 707" d="M129.522,149.129l2.382.633a3.908,3.908,0,0,0,4.78-2.774l.671-2.525A11.976,11.976,0,0,1,129.522,149.129Z" transform="translate(-115.233 -124.655)" fill="#fff"/>
    </g>
    <path id="Path_708" data-name="Path 708" d="M106.317,95.375a10.942,10.942,0,1,0,10.942,10.942A10.942,10.942,0,0,0,106.317,95.375Zm-6.2,5.46A3.126,3.126,0,1,1,102.6,104.5,3.127,3.127,0,0,1,100.121,100.835Zm4.547,9.454a3.126,3.126,0,1,1-2.479-3.661A3.126,3.126,0,0,1,104.668,110.289Zm1.327-2.53a1.389,1.389,0,1,1,1.627-1.1A1.39,1.39,0,0,1,106,107.758Zm6.518,4.041a3.126,3.126,0,1,1-2.479-3.661A3.126,3.126,0,0,1,112.513,111.8Zm-2.068-5.793a3.126,3.126,0,1,1,3.661-2.479A3.126,3.126,0,0,1,110.445,106.006Z" transform="translate(-2.864 -2.864)" fill="#fff"/>
  </g>
</svg>
