<svg xmlns="http://www.w3.org/2000/svg" width="25.5" height="25.5" viewBox="0 0 25.5 25.5">
  <g id="Instagram" transform="translate(-3.25 -3.25)">
    <path id="Path_270" data-name="Path 270" d="M8.995,2.25H21.007A6.752,6.752,0,0,1,27.75,8.995V21.007a6.752,6.752,0,0,1-6.745,6.743H8.995A6.752,6.752,0,0,1,2.25,21.005V8.995A6.752,6.752,0,0,1,8.995,2.25Zm12.011,24a5.25,5.25,0,0,0,5.245-5.243V8.995A5.25,5.25,0,0,0,21.007,3.75H8.995A5.251,5.251,0,0,0,3.75,8.995V21.005A5.251,5.251,0,0,0,8.995,26.25Z" transform="translate(1 1)" fill="#fff"/>
    <path id="Path_271" data-name="Path 271" d="M17.063,8.363a1.2,1.2,0,1,1,.851-2.046,1.2,1.2,0,0,1-.851,2.046Z" transform="translate(5.537 2.238)" fill="#fff"/>
    <path id="Path_272" data-name="Path 272" d="M13.2,18.747a5.546,5.546,0,1,1,3.924-1.623A5.533,5.533,0,0,1,13.2,18.747Zm0-9.6a4.05,4.05,0,1,0,2.864,1.186A4.023,4.023,0,0,0,13.2,9.15Z" transform="translate(2.8 2.8)" fill="#fff"/>
  </g>
</svg>
