<svg xmlns="http://www.w3.org/2000/svg" width="75.629" height="84.084" viewBox="0 0 75.629 84.084">
  <g id="medical-card-information-shield" transform="translate(-17.135 -8.68)">
    <path id="Path_1176" data-name="Path 1176" d="M34.588,31.454H13.454A12.468,12.468,0,0,1,1,19a4,4,0,0,1,8,0,4.459,4.459,0,0,0,4.454,4.454H34.588a4,4,0,0,1,0,8Z" transform="translate(16.134 61.309)" fill="#323232"/>
    <path id="Path_1177" data-name="Path 1177" d="M5,74.629a4,4,0,0,1-4-4V11.454A12.468,12.468,0,0,1,13.454-1H48a12.37,12.37,0,0,1,8.8,3.647L68.754,14.6a12.372,12.372,0,0,1,3.648,8.8V36.814a4,4,0,0,1-8,0V23.407a4.424,4.424,0,0,0-1.3-3.148L51.142,8.3A4.482,4.482,0,0,0,48,7H13.454A4.459,4.459,0,0,0,9,11.454V70.629A4,4,0,0,1,5,74.629Z" transform="translate(16.134 9.68)" fill="#323232"/>
    <path id="Path_1178" data-name="Path 1178" d="M36.134,28.134H19.227A8.236,8.236,0,0,1,11,19.907V3a4,4,0,1,1,8,0V19.907l17.134.227a4,4,0,0,1,0,8Z" transform="translate(48.402 9.68)" fill="#323232"/>
    <path id="Path_1179" data-name="Path 1179" d="M28.237,10.5a7.426,7.426,0,0,1,2.217.338l10.3,3.22a7.4,7.4,0,0,1,5.217,7.1V25.04A21.27,21.27,0,0,1,32.237,44.863l-1.992.747a8.138,8.138,0,0,1-2.007.364,5.7,5.7,0,0,1-2.007-.364l-1.992-.747A21.27,21.27,0,0,1,10.5,25.04V21.154a7.4,7.4,0,0,1,5.217-7.1l10.3-3.22A7.427,7.427,0,0,1,28.237,10.5Zm0,27.319,1.191-.446A13.232,13.232,0,0,0,37.974,25.04V21.154l-9.725-2.631L18.1,21.694l.4,3.346a13.232,13.232,0,0,0,8.547,12.333Z" transform="translate(46.789 46.789)" fill="#323232"/>
    <path id="Line_43" data-name="Line 43" d="M8.454,4H0A4,4,0,0,1-4,0,4,4,0,0,1,0-4H8.454a4,4,0,0,1,4,4A4,4,0,0,1,8.454,4Z" transform="translate(35.928 71.856)" fill="#323232"/>
    <path id="Line_44" data-name="Line 44" d="M16.907,4H0A4,4,0,0,1-4,0,4,4,0,0,1,0-4H16.907a4,4,0,0,1,4,4A4,4,0,0,1,16.907,4Z" transform="translate(35.928 54.948)" fill="#323232"/>
    <path id="Line_45" data-name="Line 45" d="M0,16.68a4,4,0,0,1-4-4V0A4,4,0,0,1,0-4,4,4,0,0,1,4,0V12.68A4,4,0,0,1,0,16.68Z" transform="translate(42.268 27.474)" fill="#323232"/>
    <path id="Line_46" data-name="Line 46" d="M12.68,4H0A4,4,0,0,1-4,0,4,4,0,0,1,0-4H12.68a4,4,0,0,1,4,4A4,4,0,0,1,12.68,4Z" transform="translate(35.928 33.814)" fill="#323232"/>
  </g>
</svg>
