<svg xmlns="http://www.w3.org/2000/svg" width="92.537" height="84.084" viewBox="0 0 92.537 84.084">
  <g id="medical-card-hand" transform="translate(-4.453 -8.68)">
    <path id="Path_1173" data-name="Path 1173" d="M2,30.317A4,4,0,0,1-1.43,24.258L5.124,13.335A16.652,16.652,0,0,1,11.968,7l2.473-1.237A16.764,16.764,0,0,1,21.9,4h5.46a4,4,0,0,1,0,8H21.9a8.724,8.724,0,0,0-3.882.916l-2.473,1.237a8.665,8.665,0,0,0-3.561,3.3L5.43,28.374A4,4,0,0,1,2,30.317Z" transform="translate(6.454 25.814)" fill="#323232"/>
    <path id="Line_39" data-name="Line 39" d="M0,16.68a4,4,0,0,1-4-4V0A4,4,0,0,1,0-4,4,4,0,0,1,4,0V12.68A4,4,0,0,1,0,16.68Z" transform="translate(73.969 25.361)" fill="#323232"/>
    <path id="Line_40" data-name="Line 40" d="M12.68,4H0A4,4,0,0,1-4,0,4,4,0,0,1,0-4H12.68a4,4,0,0,1,4,4A4,4,0,0,1,12.68,4Z" transform="translate(67.629 31.701)" fill="#323232"/>
    <path id="Line_41" data-name="Line 41" d="M8.454,4H0A4,4,0,0,1-4,0,4,4,0,0,1,0-4H8.454a4,4,0,0,1,4,4A4,4,0,0,1,8.454,4Z" transform="translate(71.856 54.948)" fill="#323232"/>
    <path id="Line_42" data-name="Line 42" d="M16.907,4H0A4,4,0,0,1-4,0,4,4,0,0,1,0-4H16.907a4,4,0,0,1,4,4A4,4,0,0,1,16.907,4Z" transform="translate(63.402 67.629)" fill="#323232"/>
    <path id="Path_1174" data-name="Path 1174" d="M3,59.436a4,4,0,0,1-1.36-7.763l24.354-8.8a13,13,0,0,0,6.352-4.978L45,18.925a2.956,2.956,0,0,0-4.549-3.731l-9.259,9.255a4,4,0,0,1-2.828,1.171H19.907a4,4,0,0,1,0-8h6.8l8.088-8.084A10.956,10.956,0,0,1,51.653,23.364L39,42.333A21.051,21.051,0,0,1,28.714,50.4L4.359,59.2A3.994,3.994,0,0,1,3,59.436Z" transform="translate(9.68 33.328)" fill="#323232"/>
    <path id="Path_1175" data-name="Path 1175" d="M60.835,83.082H14.34A10.352,10.352,0,0,1,4,72.742v-1.3a4,4,0,0,1,8,0v1.3a2.343,2.343,0,0,0,2.34,2.34H60.835a2.343,2.343,0,0,0,2.34-2.34V9.34A2.343,2.343,0,0,0,60.835,7H14.34A2.343,2.343,0,0,0,12,9.34V45.268a4,4,0,1,1-8,0V9.34A10.352,10.352,0,0,1,14.34-1H60.835A10.352,10.352,0,0,1,71.175,9.34v63.4A10.352,10.352,0,0,1,60.835,83.082Z" transform="translate(25.814 9.68)" fill="#323232"/>
  </g>
</svg>
