<svg xmlns="http://www.w3.org/2000/svg" width="113.018" height="23.373" viewBox="0 0 113.018 23.373">
  <path id="Path_1305" data-name="Path 1305" d="M-103.651-6.182l4.538-16.567h6.124L-100.655,0h-5.993l-7.593-22.749h6.08ZM-85.5,0h-5.469V-22.749H-85.5Zm9.964-4.218h10.88V0H-82.371V-2.895l10.836-15.622H-82.429v-4.233h17.673v2.807ZM-61.571,0V-22.749h6.72A10.511,10.511,0,0,1-49.505-21.4a9.22,9.22,0,0,1,3.622,3.811A12.031,12.031,0,0,1-44.6-11.942v1.149a11.985,11.985,0,0,1-1.295,5.68,9.115,9.115,0,0,1-3.673,3.782A10.993,10.993,0,0,1-55.025,0Zm3.956-19.564V-3.156h2.575A5.95,5.95,0,0,0-50.262-5.1a8.463,8.463,0,0,0,1.695-5.593v-1.265a8.674,8.674,0,0,0-1.615-5.651,5.707,5.707,0,0,0-4.669-1.956Zm35.1,8.785a13.963,13.963,0,0,1-1.156,5.869,8.711,8.711,0,0,1-3.3,3.869A9.1,9.1,0,0,1-31.913.305,9.145,9.145,0,0,1-36.851-1.04a8.835,8.835,0,0,1-3.338-3.847,13.555,13.555,0,0,1-1.193-5.775v-1.28A13.851,13.851,0,0,1-40.2-17.818a8.873,8.873,0,0,1,3.324-3.9,9.061,9.061,0,0,1,4.938-1.353,9.109,9.109,0,0,1,4.924,1.338A8.768,8.768,0,0,1-23.7-17.884a13.823,13.823,0,0,1,1.185,5.84Zm-3.956-1.193a9.964,9.964,0,0,0-1.425-5.8,4.675,4.675,0,0,0-4.058-2.015,4.666,4.666,0,0,0-4.007,2.007,9.746,9.746,0,0,0-1.476,5.687v1.309a9.855,9.855,0,0,0,1.462,5.8,4.718,4.718,0,0,0,4.065,2.044,4.635,4.635,0,0,0,4.029-2,10.092,10.092,0,0,0,1.411-5.84ZM-1.222-7.4A8.171,8.171,0,0,1-3.9-1.731,9.174,9.174,0,0,1-10.138.305,8.9,8.9,0,0,1-14.931-.982,8.417,8.417,0,0,1-18.124-4.64a13.215,13.215,0,0,1-1.164-5.513v-2.124a13.391,13.391,0,0,1,1.135-5.68,8.567,8.567,0,0,1,3.273-3.782,9.136,9.136,0,0,1,4.931-1.331,8.769,8.769,0,0,1,6.065,2.051,8.526,8.526,0,0,1,2.662,5.789H-5.149a5.651,5.651,0,0,0-1.44-3.542,4.722,4.722,0,0,0-3.36-1.084,4.61,4.61,0,0,0-3.956,1.884,9.462,9.462,0,0,0-1.425,5.52v2.007a9.956,9.956,0,0,0,1.324,5.629A4.392,4.392,0,0,0-10.138-2.88a5.1,5.1,0,0,0,3.5-1.047A5.481,5.481,0,0,0-5.149-7.4Z" transform="translate(114.24 23.068)" fill="#fff"/>
</svg>
