<svg xmlns="http://www.w3.org/2000/svg" width="21.5" height="21.5" viewBox="0 0 21.5 21.5">
  <g id="Phone_Call_Circle" data-name="Phone, Call, Circle" transform="translate(-1.25 -1.25)">
    <path id="Path_721" data-name="Path 721" d="M12,22.75A10.75,10.75,0,0,1,4.4,4.4,10.75,10.75,0,1,1,19.6,19.6,10.68,10.68,0,0,1,12,22.75Zm0-20A9.25,9.25,0,0,0,5.459,18.541,9.25,9.25,0,1,0,18.541,5.459,9.189,9.189,0,0,0,12,2.75Z" fill="#fff"/>
    <path id="Path_722" data-name="Path 722" d="M14.485,17.754a4.733,4.733,0,0,1-1.587-.3A10.856,10.856,0,0,1,9.147,14.9l-.025-.024A10.911,10.911,0,0,1,6.545,11.1a3.462,3.462,0,0,1,.639-3.875l.4-.4a1.953,1.953,0,0,1,2.986.262c.251.361.551.793.884,1.265a1.958,1.958,0,0,1-.209,2.509l-.008.008a9.91,9.91,0,0,0,1.892,1.893l.009-.009a1.959,1.959,0,0,1,2.508-.209c.435.306.824.577,1.2.839l.067.046a1.951,1.951,0,0,1,.261,2.986l-.4.4A3.159,3.159,0,0,1,14.485,17.754Zm-4.327-3.96.023.022a9.317,9.317,0,0,0,3.22,2.226c1.491.531,2.111-.086,2.315-.289l.4-.4a.452.452,0,0,0,.134-.365.443.443,0,0,0-.192-.329l-.068-.047c-.378-.263-.768-.535-1.205-.843a.466.466,0,0,0-.589.047l-.45.447a.75.75,0,0,1-.93.1,10.353,10.353,0,0,1-1.755-1.425,10.315,10.315,0,0,1-1.428-1.758.75.75,0,0,1,.1-.93l.448-.451a.465.465,0,0,0,.046-.589c-.334-.474-.637-.909-.889-1.272a.443.443,0,0,0-.328-.191.453.453,0,0,0-.365.133l-.4.4A2.153,2.153,0,0,0,7.959,10.6,9.3,9.3,0,0,0,10.159,13.794Z" fill="#fff"/>
  </g>
</svg>
