<svg xmlns="http://www.w3.org/2000/svg" width="24.033" height="20.301" viewBox="0 0 24.033 20.301">
  <g id="Telegram" transform="translate(-2.998 -7.006)">
    <g id="Group_123" data-name="Group 123" transform="translate(3.748 7.755)">
      <path id="Path_274" data-name="Path 274" d="M9.941,21.522a1.657,1.657,0,0,1-.414-.053,1.626,1.626,0,0,1-1.158-1.111l-1.835-6.04a.75.75,0,1,1,1.435-.436L9.8,19.923a.138.138,0,0,0,.229.059L12.786,17.3a.75.75,0,1,1,1.046,1.075l-2.753,2.679A1.627,1.627,0,0,1,9.941,21.522Z" transform="translate(-1.331 -3.054)" fill="#fff"/>
      <path id="Path_275" data-name="Path 275" d="M20.618,25.368a1.948,1.948,0,0,1-1.16-.384l-7.171-5.3a1.873,1.873,0,0,1-.145-2.9l5.223-4.713,1,1.114L13.148,17.9a.367.367,0,0,0-.123.295.372.372,0,0,0,.154.285l7.171,5.3a.456.456,0,0,0,.717-.273l3.521-16.6a.283.283,0,0,0-.38-.323L3.686,14.5l5.268,1.644a.75.75,0,1,1-.447,1.432l-5.436-1.7a1.439,1.439,0,0,1-.089-2.716L23.669,5.187a1.783,1.783,0,0,1,2.386,2.034l-3.521,16.6a1.96,1.96,0,0,1-1.916,1.551Z" transform="translate(-2.811 -5.816)" fill="#fff"/>
    </g>
  </g>
</svg>
