<svg xmlns="http://www.w3.org/2000/svg" width="83.75" height="75.334" viewBox="0 0 83.75 75.334">
  <g id="users" transform="translate(-8.625 -12.832)">
    <g id="Group_1667" data-name="Group 1667" transform="translate(12.625 16.832)">
      <path id="Path_1182" data-name="Path 1182" d="M15.212,35.055a4,4,0,0,1-.143-8,10.016,10.016,0,0,0,9.672-9.966A9.323,9.323,0,0,0,15.275,8a4,4,0,0,1-.121-8A17.35,17.35,0,0,1,32.741,17.054a18.017,18.017,0,0,1-17.381,18Z" transform="translate(36.188 -4)" fill="#fff"/>
      <path id="Path_1183" data-name="Path 1183" d="M19.741,35.055l-.144,0A17.993,17.993,0,0,1,2.214,17.141a17.532,17.532,0,0,1,35.053-.088,18.017,18.017,0,0,1-17.381,18ZM19.946,8a9.464,9.464,0,0,0-9.732,9.18,9.992,9.992,0,0,0,9.527,9.871,10.015,10.015,0,0,0,9.527-9.96A9.35,9.35,0,0,0,19.946,8Z" transform="translate(7.313 -4)" fill="#fff"/>
      <path id="Path_1184" data-name="Path 1184" d="M57.708,43.25a4,4,0,0,1-4-4V30.833A12.848,12.848,0,0,0,40.875,18H19.833A12.848,12.848,0,0,0,7,30.833V39.25a4,4,0,0,1-8,0V30.833A20.857,20.857,0,0,1,19.833,10H40.875A20.857,20.857,0,0,1,61.708,30.833V39.25A4,4,0,0,1,57.708,43.25Z" transform="translate(-3 28.085)" fill="#fff"/>
      <path id="Path_1185" data-name="Path 1185" d="M30.625,43.25a4,4,0,0,1-4-4V26.625A8.635,8.635,0,0,0,18,18a4,4,0,0,1,0-8A16.644,16.644,0,0,1,34.625,26.625V39.25A4,4,0,0,1,30.625,43.25Z" transform="translate(45.125 28.085)" fill="#fff"/>
    </g>
  </g>
</svg>
