<svg xmlns="http://www.w3.org/2000/svg" width="17.5" height="19.5" viewBox="0 0 17.5 19.5">
  <g id="user-profile" transform="translate(-3.25 -2.25)">
    <path id="Path_68" data-name="Path 68" d="M12,2.25a5.241,5.241,0,0,1,3.7,8.945A5.175,5.175,0,0,1,12,12.75,5.241,5.241,0,0,1,8.3,3.805,5.175,5.175,0,0,1,12,2.25Zm0,9a3.686,3.686,0,0,0,2.634-1.111A3.741,3.741,0,0,0,12,3.75,3.686,3.686,0,0,0,9.366,4.861,3.741,3.741,0,0,0,12,11.25Zm-4,3h8A4.755,4.755,0,0,1,20.75,19v1A1.752,1.752,0,0,1,19,21.75H5A1.752,1.752,0,0,1,3.25,20V19A4.755,4.755,0,0,1,8,14.25Zm11,6a.253.253,0,0,0,.25-.25V19A3.254,3.254,0,0,0,16,15.75H8A3.254,3.254,0,0,0,4.75,19v1a.253.253,0,0,0,.25.25Z" fill="#fff"/>
  </g>
</svg>
